<svg xmlns="http://www.w3.org/2000/svg" width="100" height="53.043" viewBox="0 0 100 53.043">
  <g id="Group_146" data-name="Group 146" transform="translate(-43.312 -52.302)">
    <g id="Group_41" data-name="Group 41" transform="translate(120.157 98.771)">
      <path id="Path_24" data-name="Path 24" d="M0,.1.71,0l.752,5.329-.71.1Z" transform="translate(0.755 0.397) rotate(8)" fill="#fff"/>
      <path id="Path_25" data-name="Path 25" d="M.032,3.212A2.737,2.737,0,0,1,2.473.032,3.276,3.276,0,0,1,4.4.332l.1.737A2.682,2.682,0,0,0,2.557.628,2.047,2.047,0,0,0,.77,3.108,2.084,2.084,0,0,0,3.178,5.034a2.809,2.809,0,0,0,1.315-.5L4.323,3.322l-1.092.154-.084-.594,1.8-.253.3,2.148a4.943,4.943,0,0,1-1.99.853A2.766,2.766,0,0,1,.032,3.212" transform="translate(2.854 0) rotate(8)" fill="#fff"/>
      <path id="Path_26" data-name="Path 26" d="M2.115,2.559a.914.914,0,0,0,.9-1.113A.915.915,0,0,0,1.843.623L.794.771l.273,1.936Zm.689,1.8-.88-1.169L1.152,3.3l.31,2.2-.71.1L0,.277,1.759.028A1.534,1.534,0,0,1,3.719,1.346a1.443,1.443,0,0,1-1.074,1.7l.792.992c.4.5.7.616,1.1.559a1.2,1.2,0,0,0,.3-.077l.07.5a1.952,1.952,0,0,1-.479.132A1.659,1.659,0,0,1,2.8,4.363" transform="translate(8.627 0.218) rotate(8)" fill="#fff"/>
      <path id="Path_27" data-name="Path 27" d="M3.144,3.161,1.9,1.1,1.28,3.424Zm-1.6-3.1L2,0,5.043,5l-.728.1-.85-1.4-2.344.33L.692,5.617,0,5.716Z" transform="translate(14.032 0.211) rotate(8)" fill="#fff"/>
      <path id="Path_28" data-name="Path 28" d="M2.515,4.745a.914.914,0,0,0,.9-1.114.915.915,0,0,0-1.176-.822L1.1,2.97l.273,1.936ZM2.069,2.227A.767.767,0,0,0,2.826,1.3.761.761,0,0,0,1.843.619L.794.767l.226,1.608ZM0,.274,1.759.025A1.364,1.364,0,0,1,3.5,1.2a1.421,1.421,0,0,1-.412,1.127,1.461,1.461,0,0,1,1.03,1.2A1.533,1.533,0,0,1,2.6,5.341L.752,5.6Z" transform="translate(19.057 0.216) rotate(8)" fill="#fff"/>
    </g>
    <path id="Path_51" data-name="Path 51" d="M354.8,2.279c-3.824.64-2.761,6.283,1.055,5.682,3.605-.567,2.508-6.279-1.055-5.682m27.968,32.808c.8-.264,1.143-1.047,1.529-1.759a25,25,0,0,0,2.063-5.1,24.276,24.276,0,0,0,1.143-6.508,20.839,20.839,0,0,0-7.022-15.273c-1.578-1.426-3.575-3.29-5.629-3.97a3.835,3.835,0,0,0-4.826,2.181,3.823,3.823,0,0,0,.989,4.13,17.848,17.848,0,0,0,3.134,1.782,24.735,24.735,0,0,1,5.527,4.143C385.037,20.33,385.651,28.142,382.764,35.087Z" transform="translate(-252.756 50.066)" fill="#fff"/>
    <path id="Path_53" data-name="Path 53" d="M353,11l.176.176L353,11m1.231,3.87.176.176-.176-.176m28.672.879.176.176Z" transform="translate(-253.247 42.843)" fill="#810181"/>
    <path id="Path_54" data-name="Path 54" d="M466,44l.176.176L466,44m.352.176.176.176Z" transform="translate(-345.934 15.648)" fill="#4f115f"/>
    <path id="Path_55" data-name="Path 55" d="M354.147,45.922c-3.476,1.09-1.724,6.553,1.759,5.524C359.627,50.347,357.821,44.77,354.147,45.922Z" transform="translate(-251.88 14.192)" fill="#fff"/>
    <path id="Path_78" data-name="Path 78" d="M354.147,45.922c-3.476,1.09-1.724,6.553,1.759,5.524C359.627,50.347,357.821,44.77,354.147,45.922Z" transform="translate(-252.01 53.411)" fill="#fff"/>
    <path id="Path_56" data-name="Path 56" d="M360,47l.176.176L360,47m19.7,0,.176.176L379.7,47m.352.176.176.176-.176-.176m.88.528.176.176Z" transform="translate(-258.514 13.176)" fill="#4f115f"/>
    <path id="Path_57" data-name="Path 57" d="M385.728,69.017c-1.242-.465-2.6-.558-3.87-.971-3.92-1.278-8.229-3.953-8.267-8.528,2.452,1.446,5.049,2.66,7.388,4.3,2.2,1.541,4.587,3.653,5.506,6.255.729,2.064.557,4.79-1.287,6.239a6.64,6.64,0,0,1-4.571,1.133,17.516,17.516,0,0,1-9.147-3.971c-1.254-1-2.3-2.717-3.87-3.226a3.291,3.291,0,0,0-4.338,2.816c-.226,2.208,2.274,3.844,3.431,5.453A19.2,19.2,0,0,1,370.249,89.6c0,2.4-1.237,5.709,1.583,7.05a3.548,3.548,0,0,0,5.093-3.356c-.146-4.62-1.3-10.014-3.862-13.9,2.971,1.344,6.115,2.458,9.323,1.151,2.921-1.189,4.639-3.977,5.769-6.78,2.253-5.587,2.5-11.863-2.078-16.352a24.367,24.367,0,0,0-6.506-4.359,5.277,5.277,0,0,0-3.342-.831c-1.741.407-2.65,2.51-3.406,3.952-2.155,4.111-3.354,9.006-1.173,13.368a11.828,11.828,0,0,0,5.458,5.32,4.292,4.292,0,0,0,3.166.641,5.164,5.164,0,0,0,2.264-2.091A29.789,29.789,0,0,0,385.728,69.017Z" transform="translate(-261.313 7.91)" fill="#fff"/>
    <path id="Path_58" data-name="Path 58" d="M484,54l.176.176Z" transform="translate(-360.822 7.407)" fill="#4f115f"/>
    <path id="Path_59" data-name="Path 59" d="M352,57l.176.176L352,57m32.541.176.176.176Z" transform="translate(-252.423 4.935)" fill="#810181"/>
    <path id="Path_60" data-name="Path 60" d="M376.978,61l.176.176L376.978,61M352,61.879l.176.176L352,61.879m33.421.352.176.176-.176-.176m-6.332.528.176.176-.176-.176m-16.007,1.407.176.176Z" transform="translate(-252.423 1.432)" fill="#4f115f"/>
    <path id="Path_61" data-name="Path 61" d="M498,88l.176.176Z" transform="translate(-372.741 -20.896)" fill="#810181"/>
    <path id="Path_62" data-name="Path 62" d="M549,90l.176.176Z" transform="translate(-414.771 -22.551)" fill="#4f115f"/>
    <path id="Path_63" data-name="Path 63" d="M176.954,119.045c-.088-1.532.3-3.8-.779-5.078a1.743,1.743,0,0,0-2.834.186,2.383,2.383,0,0,0-.08,1.9,3.258,3.258,0,0,1,1.056-.185c1.517.158,1.366,2.268,1.508,3.351.088.673-.056,2.226,1.112,1.821.909-.315,1.29-1.876,1.486-2.7.678-2.849.306-5.738.634-8.619.11-.969.565-3.47,2.1-2.751.484.227.743.776,1.074,1.168a2.287,2.287,0,0,0-.115-2.443,2.126,2.126,0,0,0-3.444.34c-.838,1.652-.49,3.684-.487,5.445A19.206,19.206,0,0,1,176.954,119.045Z" transform="translate(-103.633 -35.079)" fill="#fff"/>
    <path id="Path_64" data-name="Path 64" d="M425,111l.176.176Z" transform="translate(-312.005 -39.927)" fill="#4f115f"/>
    <path id="Path_65" data-name="Path 65" d="M22.1,117.9a1.648,1.648,0,0,0,1.683-.266,1.5,1.5,0,0,0-.8-2.5c-2.293-.335-1.681,2.879-1.508,4.178a31.933,31.933,0,0,0,4.149,12.137,35.4,35.4,0,0,0,52.416,9.989c2.569-2.026,6.735-5.2,4.595-8.934a4.065,4.065,0,0,0-1.084-1.269,4.584,4.584,0,0,0-5.439.145c-1.507,1.159-2.646,2.964-4.053,4.274a33.662,33.662,0,0,1-9.674,6.273,28.5,28.5,0,0,1-9.85,2.026c-8.144.558-16.479-2.02-22.148-8.107C25.7,130.825,23.344,124.533,22.1,117.9Z" transform="translate(22.051 -43.967)" fill="#fff"/>
    <path id="Path_66" data-name="Path 66" d="M472,124l.176.176Z" transform="translate(-350.893 -50.683)" fill="#4f115f"/>
    <path id="Path_67" data-name="Path 67" d="M201,134l.176.176Z" transform="translate(-126.666 -58.957)" fill="#810181"/>
    <path id="Path_69" data-name="Path 69" d="M30.352,160l.176.176L30.352,160m.7,2.111.176.176-.176-.176M30,162.463l.176.176L30,162.463m68.425,1.055.176.176Z" transform="translate(14.849 -80.507)" fill="#810181"/>
    <path id="Path_70" data-name="Path 70" d="M418,206l.176.176Z" transform="translate(-306.213 -118.531)" fill="#010101"/>
    <path id="Path_71" data-name="Path 71" d="M520.257,213.2a9.625,9.625,0,0,1-.176-1.583,3.559,3.559,0,0,0,.917,1.453,2.426,2.426,0,0,0,3.365-1.1,2.935,2.935,0,0,0-1.293-3.677C519.882,206.467,516.985,211.637,520.257,213.2Z" transform="translate(-389.897 -120.182)" fill="#fff"/>
    <path id="Path_72" data-name="Path 72" d="M51,216l.176.176L51,216m60.334,1.055.176.176Z" transform="translate(-2.457 -126.819)" fill="#4f115f"/>
    <path id="Path_73" data-name="Path 73" d="M70,230l.176.176Z" transform="translate(-18.115 -138.389)" fill="#810181"/>
    <path id="Path_74" data-name="Path 74" d="M142.353,230l.176.176-.176-.176m.352,1.231.176.176-.176-.176M88,232.99l.176.176L88,232.99m55.233,1.055.176.176-.176-.176m-51.187,1.583.176.176Z" transform="translate(-32.948 -138.477)" fill="#4f115f"/>
    <path id="Path_75" data-name="Path 75" d="M438,266l.176.176Z" transform="translate(-322.761 -168.316)" fill="#810181"/>
    <path id="Path_77" data-name="Path 77" d="M521,279.929v1.759a2.718,2.718,0,0,0,1.507-.207.847.847,0,0,0-.14-1.446,3.48,3.48,0,0,0-1.367-.106m10.378,0v1.407a2.975,2.975,0,0,0,1.191-.106.642.642,0,0,0,.138-1.12,2.36,2.36,0,0,0-1.328-.181m-4.222.7-.528,1.759h1.407a3.38,3.38,0,0,0-.88-1.759m4.222,1.407V283.8a2.856,2.856,0,0,0,1.527-.181C534.277,282.694,532.033,282.046,531.378,282.04Z" transform="translate(-391.696 -179.783)" fill="#322c31"/>
    <path id="Path_68" data-name="Path 68" d="M29,149l.176.176Z" transform="translate(15.674 -71.368)" fill="#4f115f"/>
  </g>
</svg>
